<?xml version="1.0" standalone="no"?>
<svg xmlns="http://www.w3.org/2000/svg" viewBox="0 0 188.7 29" width="188.7" height="29"><path fill="#61d1b6" fill-rule="nonzero" d="M6.24 12.96L6.24 12.96L6.24 11.64L7.92 11.64L7.92 12.96Q7.92 14.57 6.94 15.44Q5.95 16.32 3.98 16.32Q2.02 16.32 1.01 15.44Q0 14.57 0 12.96L0 12.96L0 3.36Q0 1.75 0.98 0.88Q1.97 0 3.94 0Q5.90 0 6.91 0.88Q7.92 1.75 7.92 3.36L7.92 3.36L7.92 5.64L6.24 5.64L6.24 3.36Q6.24 1.44 3.96 1.44Q1.68 1.44 1.68 3.36L1.68 3.36L1.68 12.96Q1.68 14.88 3.96 14.88Q6.24 14.88 6.24 12.96ZM11.88 12.96L11.88 12.96L11.88 0.36L13.56 0.36L13.56 12.96Q13.56 13.87 13.96 14.38Q14.35 14.88 15.41 14.88Q16.46 14.88 17.35 14.06Q18.24 13.25 18.24 12.48L18.24 12.48L18.24 0.36L19.92 0.36L19.92 15.96L19.20 15.96L18.58 14.42Q18.05 15.29 17.22 15.80Q16.39 16.32 15.41 16.32L15.41 16.32Q11.88 16.32 11.88 12.96ZM26.40 0.36L26.40 15.96L24.72 15.96L24.72 0.36L26.40 0.36ZM35.06 15.96L35.06 15.96L31.20 15.96L31.20 0.36L35.06 0.36Q36.94 0.36 37.91 1.25Q38.88 2.14 38.88 3.72L38.88 3.72L38.88 12.60Q38.88 14.21 37.92 15.08Q36.96 15.96 35.06 15.96ZM37.20 12.60L37.20 12.60L37.20 3.72Q37.20 2.81 36.65 2.30Q36.10 1.80 35.06 1.80L35.06 1.80L32.88 1.80L32.88 14.52L35.06 14.52Q37.20 14.52 37.20 12.60ZM50.76 3.36L50.76 15.96L50.04 15.96L49.42 14.42Q48.91 15.29 48.10 15.80Q47.28 16.32 46.30 16.32L46.30 16.32Q42.84 16.32 42.84 12.96L42.84 12.96L42.84 10.56Q42.84 7.20 46.30 7.20L46.30 7.20L49.08 7.20L49.08 3.26Q49.08 2.40 48.53 1.92Q47.98 1.44 46.90 1.44L46.90 1.44Q44.76 1.44 44.76 3.26L44.76 3.26L44.76 4.68L43.08 4.68L43.08 3.36Q43.08 1.75 44.03 0.88Q44.98 0 46.90 0Q48.82 0 49.79 0.88Q50.76 1.75 50.76 3.36L50.76 3.36ZM49.08 12.55L49.08 8.64L46.30 8.64Q45.29 8.64 44.90 9.14Q44.52 9.65 44.52 10.56L44.52 10.56L44.52 12.96Q44.52 13.87 44.90 14.38Q45.29 14.88 46.30 14.88Q47.30 14.88 48.17 14.10Q49.03 13.32 49.08 12.55L49.08 12.55ZM59.18 15.96L59.18 15.96L55.32 15.96L55.32 0.36L59.18 0.36Q61.06 0.36 62.03 1.25Q63 2.14 63 3.72L63 3.72L63 12.60Q63 14.21 62.04 15.08Q61.08 15.96 59.18 15.96ZM61.32 12.60L61.32 12.60L61.32 3.72Q61.32 2.81 60.77 2.30Q60.22 1.80 59.18 1.80L59.18 1.80L57 1.80L57 14.52L59.18 14.52Q61.32 14.52 61.32 12.60ZM75.24 3.36L75.24 3.36L75.24 12.96Q75.24 14.57 74.22 15.44Q73.20 16.32 71.17 16.32Q69.14 16.32 68.11 15.44Q67.08 14.57 67.08 12.96L67.08 12.96L67.08 3.36Q67.08 1.75 68.10 0.88Q69.12 0 71.15 0Q73.18 0 74.21 0.88Q75.24 1.75 75.24 3.36ZM73.56 12.96L73.56 12.96L73.56 3.36Q73.56 1.44 71.16 1.44Q68.76 1.44 68.76 3.36L68.76 3.36L68.76 12.96Q68.76 14.88 71.16 14.88Q73.56 14.88 73.56 12.96ZM78.24 15.96L81.77 0.36L84.29 0.36L87.82 15.96L86.14 15.96L85.32 12.36L80.74 12.36L79.92 15.96L78.24 15.96ZM84.98 10.92L83.02 2.23L81.05 10.92L84.98 10.92ZM92.86 3.84L92.86 15.96L91.18 15.96L91.18 0.36L91.90 0.36L92.50 1.92Q93.65 0 95.69 0L95.69 0Q99.22 0 99.22 3.36L99.22 3.36L99.22 15.96L97.54 15.96L97.54 3.36Q97.54 2.45 97.14 1.94Q96.74 1.44 95.69 1.44Q94.63 1.44 93.74 2.26Q92.86 3.07 92.86 3.84L92.86 3.84ZM105.46 0.36L105.46 15.96L103.78 15.96L103.78 0.36L105.46 0.36ZM111.94 3.77L111.94 15.96L110.26 15.96L110.26 0.36L110.98 0.36L111.58 1.90Q112.08 1.03 112.90 0.52Q113.71 0 114.67 0L114.67 0Q117.10 0 117.77 1.75L117.77 1.75Q118.92 0 120.79 0L120.79 0Q124.18 0 124.18 3.36L124.18 3.36L124.18 15.96L122.50 15.96L122.50 3.36Q122.50 1.44 120.77 1.44L120.77 1.44Q119.76 1.44 118.91 2.26Q118.06 3.07 118.06 3.84L118.06 3.84L118.06 15.96L116.38 15.96L116.38 3.36Q116.38 1.44 114.65 1.44L114.65 1.44Q113.64 1.44 112.79 2.22Q111.94 3 111.94 3.77L111.94 3.77ZM136.18 3.36L136.18 15.96L135.46 15.96L134.83 14.42Q134.33 15.29 133.51 15.80Q132.70 16.32 131.71 16.32L131.71 16.32Q128.26 16.32 128.26 12.96L128.26 12.96L128.26 10.56Q128.26 7.20 131.71 7.20L131.71 7.20L134.50 7.20L134.50 3.26Q134.50 2.40 133.94 1.92Q133.39 1.44 132.31 1.44L132.31 1.44Q130.18 1.44 130.18 3.26L130.18 3.26L130.18 4.68L128.50 4.68L128.50 3.36Q128.50 1.75 129.44 0.88Q130.39 0 132.31 0Q134.23 0 135.20 0.88Q136.18 1.75 136.18 3.36L136.18 3.36ZM134.50 12.55L134.50 8.64L131.71 8.64Q130.70 8.64 130.32 9.14Q129.94 9.65 129.94 10.56L129.94 10.56L129.94 12.96Q129.94 13.87 130.32 14.38Q130.70 14.88 131.71 14.88Q132.72 14.88 133.58 14.10Q134.45 13.32 134.50 12.55L134.50 12.55ZM146.81 15.96L140.74 15.96L140.74 0.36L142.42 0.36L142.42 14.52L146.81 14.52L146.81 15.96Z" transform="translate(0, 6.34)"></path><line x1="155.80800000000002" y1="2%" x2="155.80800000000002" y2="98%" stroke="#61d1b6" stroke-linecap="round"></line><g fill="#489bfa" color="#489bfa" transform="translate(164.80800000000002 0) scale(0.5686275)"><svg width="42.0" height="51.0" x="0.0" y="0.0" viewBox="0 0 42 51"><path fill="currentColor" fill-rule="nonzero" d="M37.77 1.63C33.5-.95 27.91.72 24.7 4.19c-2.15 2.33-3.42 5.32-4.41 8.29-.44 1.31-.86 2.63-1.27 3.96-1.02-2.94-2.49-5.72-4.42-8.2-2.06-2.65-7.49-9.36-11.14-5.88C-.46 6.1.01 12.63 1.26 17.38c1.36 5.17 3.87 10.14 6.51 14.76 3.01 5.28 6.64 10.14 10.71 14.65l-.06.12c-1.26 2.57 2.74 4.51 4 1.94 5.47-11.15 13.62-20.97 17.62-32.84 1.61-4.79 2.94-11.24-2.27-14.38zM20.46 25.18c-.01-.04-.02-.08-.04-.12.04-.02.07-.05.11-.08-.02.08-.04.14-.07.2zm-8.05-7.89c.08.58.16 1.17.25 1.75-.55-1.27-1.08-2.55-1.58-3.84.45.69.9 1.38 1.33 2.09zm7.69 23.33l.45 1.89c-.57-.65-1.13-1.31-1.68-1.98.39.16.81.18 1.23.09zM35.04 5.2c2.69 1.15 2.19 4.49 1.61 6.78V12c-.56-.01-1.13.22-1.6.79-2.05 2.5-3.88 5.14-5.55 7.88 1.35-4.79 2.9-9.52 4.67-14.18.2-.53.2-1.06.05-1.54.28.05.56.13.82.25zm-8.43 3.78c-1.15 2.33-1.94 4.92-2.82 7.28-.23.61-.45 1.21-.68 1.82.41-1.32.83-2.64 1.27-3.95.59-1.72 1.26-3.55 2.23-5.15zM11.73 30.17c-2.67-4.6-5.27-9.69-6.45-14.91-.31-1.39-.53-2.87-.5-4.32.24.64.47 1.25.67 1.81 1.07 3.13 2.31 6.2 3.65 9.22 2.57 5.77 5.53 11.36 8.5 16.93-2.15-2.77-4.11-5.7-5.87-8.73z"></path></svg></g></svg>